<svg height="800" width="1280" xmlns="http://www.w3.org/2000/svg"><path d="m0 0h1280v800h-1280z" fill="#fff"/><g transform="matrix(15.240547 0 0 15.240547 1028.4575 -14696.012)"><path d="m-61.902344 1003.8125 13.515625-21.40625c1.119778-1.77081 2.386053-3.09242 3.798828-3.96484 1.412743-.87237 2.880841-1.30857 4.404297-1.3086l2.675782 26.67969h-6.601563l-.351562-4.43359h-7.890625l-2.714844 4.43359zm12.949219-10.03906h4.238281l-.429687-6.28907z"/><path d="m-35.75 1003.8125 5.683594-21.15234c.416659-1.52342 1.269522-2.8255 2.558594-3.90625 1.289051-1.08071 2.727851-1.62107 4.316406-1.6211l5.234375 13.92578 2.246093-8.39843c.403624-1.48436 1.383441-2.77667 2.939454-3.87696 1.555963-1.10023 3.1998416-1.65036 4.9316403-1.65039l-7.1484373 26.67969h-5.410156l-5.273438-13.92578-3.710937 13.92578z"/><path d="m-13.464844 1003.8125 13.51562525-21.40625c1.11977805-1.77081 2.38605285-3.09242 3.79882815-3.96484 1.4127427-.87237 2.8808402-1.30857 4.4042969-1.3086l2.6757817 26.67969h-6.601563l-.3515625-4.43359h-7.890625l-2.7148437 4.43359zm12.949219-10.03906h4.2382813l-.4296875-6.28907z"/></g></svg>