<svg xmlns="http://www.w3.org/2000/svg" width="900" height="600"><defs><linearGradient id="A" x1="53.45" y1="13.61" x2="4.7" y2="62.37" gradientUnits="userSpaceOnUse"><stop offset=".09" stop-color="#6480c0"/><stop offset=".36" stop-color="#0057a8"/><stop offset=".96" stop-color="#6480c0"/></linearGradient><linearGradient id="B" x1="31.48" y1="7.72" x2="-3.3" y2="42.5" gradientUnits="userSpaceOnUse"><stop offset="0" stop-color="#6480c0"/><stop offset=".26" stop-color="#0057a8"/><stop offset="1" stop-color="#6480c0"/></linearGradient><linearGradient id="C" x1="66.01" y1="25" x2="17.24" y2="73.77" gradientUnits="userSpaceOnUse"><stop offset=".09" stop-color="#ef4135"/><stop offset=".35" stop-color="#a0271d"/><stop offset=".67" stop-color="#ef4135"/></linearGradient></defs><path d="M0 0h900v600H0z" fill="#fff" fill-rule="evenodd"/><g transform="matrix(4.093507 0 0 4.093507 316.04 75.000415)"><path d="M38.27 14.25c.41 4.81-2.02 11.53-10.56 19.48s-20.6 16-19.06 26.44c1.37 9.31 12.46 14.55 12.46 14.55l7.21-6.1s-9.44-6.95-1.82-15.73c13-15.01 24.19-19.15 22.89-31.68C48.08 8.67 33.6 3.61 33.6 3.61s4.11 4.32 4.67 10.65z" fill="url(#A)"/><path d="M20.52 0s4.01 5.15 2.89 12.7S7.99 26.09 3.88 34.5s2.15 17.34 2.15 17.34-.77-4.31 6.73-11.07c10.45-9.44 21.7-17.07 21.11-25.24C33.04 3.94 20.52 0 20.52 0zm-2.47 34.82l-5.96 5.2c-4.08 3.69-5.83 6.74-6.57 8.84-1.47-3.07-3.29-8.66-.73-13.91 1.82-3.71 5.86-7 9.75-10.18 4.73-3.85 9.21-7.49 9.87-11.91A19.03 19.03 0 0 0 22.9 2.15c3.55 1.84 9.42 5.99 9.96 13.46.44 6.13-6.62 12.19-14.82 19.22z" fill="url(#B)" fill-rule="evenodd"/><path d="M41.91 74.72s-12.89-6.01-12.89-13.61c0-8.09 7.02-11.89 16.26-21.5 3.85-3.99 7.78-8.42 7.98-15.32v-.26c0-4.27-2.95-9.52-2.95-9.52s11.21 4.38 12.99 14.16c.19 1.02.28 2.01.28 2.98 0 6.41-4.09 12.09-13.83 20.28-4.37 3.68-5.77 6.89-5.77 9.49 0 4.63 4.47 7.33 4.47 7.33l-6.55 5.98z" fill="url(#C)"/><path d="M20.62 91.04c.29-.04.6-.05.9-.05a8.6 8.6 0 0 1 8.51 7.32 8.76 8.76 0 0 0 1.79.38c-.47-5.28-4.9-9.42-10.3-9.42-.29 0-.6.01-.89.04h0c.02.27.03.55.03.83a9.1 9.1 0 0 1-.04.91h0zm9.49 9.09h0c-.27 4.51-4.01 8.08-8.59 8.08s-8.61-3.86-8.61-8.61c0-3.82 2.49-7.06 5.93-8.18h0c.06-.42.1-.85.1-1.29 0-.18 0-.36-.02-.53h0c-4.45 1.15-7.73 5.19-7.73 10 0 5.71 4.62 10.33 10.33 10.33s9.89-4.18 10.3-9.51h0c-.59-.05-1.16-.15-1.71-.29z" fill="#fcb131"/><path d="M11.19 99.6l.04-.91h0a8.9 8.9 0 0 1-.9.04 8.61 8.61 0 0 1-8.61-8.6 8.62 8.62 0 0 1 8.61-8.61 8.62 8.62 0 0 1 8.62 8.61c0 3.82-2.49 7.06-5.93 8.19q0 0 0 0a9.08 9.08 0 0 0-.1 1.28c0 .18 0 .36.02.53h0c4.46-1.16 7.73-5.2 7.73-10 0-5.71-4.63-10.33-10.34-10.33S0 84.42 0 90.13s4.62 10.33 10.33 10.33c.3 0 .6-.01.89-.04h0c-.02-.27-.03-.55-.03-.83z" fill="#0081c8"/><path d="M24.12 89.6c.27-4.51 4.01-8.08 8.59-8.08s8.61 3.85 8.61 8.61c0 3.81-2.49 7.05-5.93 8.19a9.08 9.08 0 0 0-.1 1.28c0 .18 0 .36.02.53 4.45-1.16 7.73-5.2 7.73-10 0-5.71-4.63-10.33-10.34-10.33s-9.88 4.19-10.3 9.51h0a9.55 9.55 0 0 1 1.71.3h0zm9.46 10l.04-.91c-.3.03-.6.04-.9.04-4.31 0-7.89-3.18-8.51-7.31h0c-.57-.19-1.17-.32-1.78-.38h0a10.32 10.32 0 0 0 10.29 9.42c.3 0 .6-.01.9-.04-.02-.27-.03-.55-.03-.83z" fill="#231f20"/><path d="M55.1 79.8c-5.42 0-9.87 4.19-10.29 9.51h0c.58.05 1.15.15 1.71.29h0c.27-4.51 4.01-8.08 8.59-8.08s8.61 3.85 8.61 8.61-3.86 8.6-8.61 8.6a8.61 8.61 0 0 1-8.51-7.31h0a8.05 8.05 0 0 0-1.78-.38h0a10.32 10.32 0 0 0 10.29 9.42c5.71 0 10.34-4.62 10.34-10.33S60.82 79.8 55.11 79.8z" fill="#ee334e"/><path d="M43.01 91.04c.29-.04.59-.05.9-.05 4.31 0 7.88 3.17 8.51 7.32.57.19 1.16.31 1.78.38a10.33 10.33 0 0 0-10.29-9.42c-.3 0-.6.01-.89.04.02.27.03.55.03.83a9.1 9.1 0 0 1-.04.91h0zm9.49 9.09h0c-.28 4.51-4.02 8.08-8.59 8.08s-8.61-3.86-8.61-8.61c0-3.82 2.48-7.06 5.93-8.18.06-.42.1-.85.1-1.29 0-.18 0-.36-.02-.53h0c-4.45 1.15-7.73 5.19-7.73 10 0 5.71 4.62 10.33 10.33 10.33s9.87-4.18 10.3-9.51h0c-.59-.05-1.16-.15-1.71-.29z" fill="#00a651"/></g></svg>